<svg width="219" height="73" viewBox="0 0 219 73" fill="none" xmlns="http://www.w3.org/2000/svg">
<path fill-rule="evenodd" clip-rule="evenodd" d="M56.3945 17.2962L55.1462 21.1446L54.5111 20.9009L53.8651 20.593L53.2519 20.4262L52.6606 20.3108L52.0912 20.2082L51.5218 20.144H50.9853H49.8903H49.3538L48.8391 20.2338L48.3573 20.3493L47.8974 20.516L47.4813 20.7213L47.0762 20.9394L46.7149 21.2087L46.3973 21.5166L46.1126 21.8501L45.8827 22.1965L45.6965 22.5813L45.5432 22.979L45.4337 23.4152L45.368 23.8641L45.3023 24.4414V24.8519L45.368 25.2624L45.4556 25.6344L45.5761 25.9807L45.7403 26.3271L45.9374 26.6478L46.1674 26.9428L46.4192 27.2379L46.7477 27.5073L47.0981 27.7766L47.4923 28.0589L47.9084 28.3411L48.1383 28.495L48.4011 28.6489L48.6858 28.8285L48.9924 29.0081L49.3209 29.1877L49.6713 29.4058L50.0546 29.611L50.4597 29.8419L50.8539 30.06L51.2043 30.2524L51.5109 30.4192L51.7846 30.5731L52.0036 30.7142L52.1788 30.8169L52.3212 30.8938H52.4197L53.4162 31.5481L53.9089 31.8944L54.4126 32.2664L54.8287 32.5871L55.2119 32.9335L55.5733 33.2798L55.9018 33.6518L56.1974 34.0367L56.4821 34.4343L56.723 34.8448L56.9639 35.2681L57.15 35.7171L57.3362 36.1661L57.4676 36.6407L57.599 37.1154L57.6866 37.6285L57.7523 38.1416V38.6675V39.7323V40.2582V40.7585L57.6756 41.2588L57.5661 41.7334L57.4566 42.208L57.3471 42.657L57.1938 43.0932L56.9967 43.5293L56.8106 43.9526L56.5697 44.3375L56.3288 44.748L56.066 45.12L55.7704 45.492L55.4528 45.8512L55.1572 46.2488L54.8068 46.5824L54.4345 46.8774L54.0622 47.1596L53.668 47.4162L53.2629 47.6599L52.8468 47.8908L52.4197 48.0832L51.9817 48.2628L51.5218 48.4296L51.051 48.5707L50.5801 48.6733L50.0765 48.7759L49.5837 48.8529H49.0472H48.5216H47.9741H47.0324L46.0688 48.8144L45.16 48.6605L44.2621 48.4424L43.7913 48.3398L43.3642 48.2372L42.9919 48.1217L42.6963 48.0191L42.4773 47.9421L42.2145 47.8267L40.7144 42.4005L42.2583 43.1188L42.7401 43.3113L43.189 43.4908L43.6051 43.6448L44.0322 43.8115L44.4154 43.9398L44.7877 44.0553L45.149 44.1707L45.4885 44.2605L46.1126 44.4273L46.7368 44.5299L47.3062 44.6069H48.4011L48.9486 44.5299L49.4633 44.4273L49.956 44.2733L50.4159 44.0809L50.8648 43.8372L51.2809 43.555L51.6642 43.2343L52.0146 42.8751L52.3212 42.4774L52.573 42.0798L52.7811 41.6436L52.9453 41.169L53.0658 40.6687L53.1315 40.1684V39.6168V39.0909L53.0329 38.5906L52.9672 38.1416L52.7701 37.6798L52.4635 37.2693L52.135 36.8716L51.7408 36.474L51.3028 36.1148L50.6896 35.7043L50.0436 35.3066L49.8684 35.1784L49.6385 35.0501L49.3976 34.8961L49.1019 34.7037L48.7734 34.5113L48.434 34.3061L48.0288 34.0751L47.6018 33.8314L46.9229 33.4466L46.2878 33.0746L45.7075 32.7026L45.1819 32.3562L44.6891 32.0355L44.2511 31.7276L43.846 31.4198L43.4737 31.1247L43.1124 30.8553L42.8058 30.5218L42.5101 30.2011L42.2364 29.8291L42.0174 29.4058L41.7874 29.0466L41.5903 28.6746L41.4042 28.2898L41.2509 27.8921L41.1085 27.4816L40.9881 27.007L40.9224 26.6221L40.8458 26.186V25.737V25.2752V24.8006V24.3003V23.8385V23.3767L40.9224 22.902L41.01 22.4659L41.1085 22.0297L41.2509 21.6321L41.3932 21.2216L41.5794 20.8111L41.7655 20.4391L41.9736 20.0799L42.2035 19.7079L42.4663 19.3615L42.7401 19.0408L43.0248 18.7073L43.3423 18.3994L43.6818 18.1044L44.0322 17.835L44.3716 17.5784L44.7439 17.3347L45.1381 17.1295L45.5323 16.9114L45.9484 16.7318L46.3645 16.5779L46.8025 16.4368L47.2514 16.3085L47.7003 16.2059L48.1821 16.1161H48.6639H49.1676H49.6823H50.6239H51.04H51.4999H51.9489L52.8906 16.2828L53.8979 16.4881L54.2593 16.565L54.5768 16.642L54.8506 16.719H55.0915L55.3324 16.8216L55.6499 16.9242L56.0003 17.0653L56.3945 17.2962ZM59.6795 36.5381V35.8582V35.204L59.7451 34.537L59.8218 33.9084L59.9094 33.2926L60.0298 32.6897L60.1722 32.0996L60.3364 31.5481L60.5335 30.9836L60.7416 30.4448L60.9496 29.9189L61.2124 29.4186L61.4862 28.944L61.7818 28.4565L62.0994 28.0075L62.4279 27.5714L62.7892 27.1481L63.1505 26.7504L63.5338 26.3912L63.9389 26.0577L64.3331 25.7498L64.7602 25.4548L65.1982 25.1982L65.6471 24.9802L66.107 24.7877L66.5997 24.6081L67.0815 24.4542L67.5852 24.3259L68.1108 24.2361H68.6364H69.1839H70.2789H70.8264H71.352L71.8666 24.3259L72.3703 24.4542L72.874 24.6081L73.3448 24.7621L73.8047 24.9673L74.2537 25.1854L74.6917 25.442L75.1187 25.737L75.5348 26.032L75.929 26.3656L76.3122 26.7248L76.6736 27.1224L77.0349 27.5201L77.3634 27.9562L77.6919 28.4052L77.9876 28.8798L78.2504 29.3545L78.5132 29.8548L78.7431 30.3807L78.9511 30.9067L79.1263 31.4711L79.3015 32.0355L79.4329 32.6256L79.5643 33.2285L79.6519 33.8442L79.7286 34.4985L79.7943 35.1399V35.8069V37.141V37.8209L79.7286 38.4751L79.6519 39.1037L79.5534 39.7194L79.4329 40.3223L79.3015 40.9124L79.1263 41.464L78.9402 42.0285L78.7321 42.5544L78.5022 43.0803L78.2394 43.5806L77.9766 44.0553L77.6591 44.5299L77.3525 44.9789L77.013 45.415L76.6517 45.8384L76.2903 46.2104L75.9071 46.5695L75.5019 46.9159L75.0968 47.2238L74.6698 47.506L74.2318 47.7625L73.7828 47.9806L73.3229 48.1859L72.8411 48.3655L72.3593 48.5194L71.8557 48.6348L71.341 48.7246H70.8154H70.2789H69.1839H68.6364H68.1108L67.5852 48.6348L67.0815 48.5194L66.5997 48.3655L66.107 48.1987L65.6471 47.9806L65.1982 47.7625L64.7602 47.506L64.3331 47.2366L63.9389 46.9287L63.5338 46.5952L63.2053 46.2488L62.844 45.864L62.4826 45.4535L62.1541 45.0174L61.8366 44.5684L61.5409 44.0938L61.2672 43.6191L61.0044 43.1188L60.7963 42.6057L60.6321 42.0541L60.435 41.5153L60.2707 40.9381L60.1284 40.348L59.9641 39.8349L59.8765 39.2191L59.7999 38.5778L59.7342 37.9364V37.2565L59.6795 36.5381ZM69.7752 28.046H69.151L68.5598 28.1615L67.9904 28.3411L67.4648 28.5848L66.9611 28.9183L66.5012 29.3032L66.0632 29.7778L65.669 30.3166L65.3077 30.9195L65.0011 31.5481L64.7273 32.2536L64.5083 32.9976L64.3441 33.7929L64.2455 34.7037L64.1689 35.5888V36.5253V37.4361L64.2455 38.3084L64.366 39.1422L64.5302 39.9247L64.7492 40.6559L65.023 41.3486L65.3296 42.0028L65.6909 42.6057L66.0851 43.1445L66.5231 43.6063L66.983 44.0168L67.4867 44.3375L68.0123 44.594L68.5817 44.7736L69.1729 44.8891H69.7971H70.4322L71.0235 44.7736L71.571 44.594L72.0966 44.3503L72.6002 44.0168L73.0601 43.6319L73.4981 43.1573L73.9033 42.6185L74.2537 42.0156L74.5822 41.3742L74.845 40.6815L75.064 39.9375L75.2391 39.155L75.3487 38.3212L75.4253 37.4361V36.5253V35.6017L75.3487 34.7037L75.2391 33.8699L75.064 33.0746L74.845 32.3434L74.5822 31.625L74.2537 30.9836L73.9033 30.3807L73.4981 29.8419L73.0601 29.3545L72.6002 28.9696L72.0966 28.6361L71.5819 28.3539L71.0344 28.1743L70.4869 28.0589L69.7752 28.046ZM81.601 48.3911V15.8467H85.2473H85.4006L85.5429 15.9365L85.6743 16.0648L85.7838 16.2059L85.8605 16.3855V16.565V48.3911H81.601ZM100.938 33.6518V32.7667V32.1894V31.6635L100.84 31.176L100.697 30.7014L100.533 30.2653L100.314 29.8548L100.051 29.4828L99.7558 29.1492L99.4273 28.8542L99.066 28.5848L98.6827 28.3539L98.2666 28.1743L97.8177 28.0204L97.3468 27.9177L96.7665 27.8536H95.6715L95.135 27.9177L94.6094 28.0204L94.0947 28.1615L93.821 28.2513L93.5254 28.3539L93.2078 28.4822L92.8574 28.6233L92.4742 28.7772L92.069 28.9696L91.631 29.1621L91.1711 29.393L90.1966 25.8396L90.996 25.4676L91.7734 25.1341L92.5399 24.8519L93.2845 24.621L94.0947 24.4286L94.9269 24.2874L95.792 24.2105H96.657H97.6206H98.0695L98.5185 24.2746L98.9565 24.4414L99.3726 24.5312L99.7668 24.6466L100.172 24.7621L100.544 24.916L100.906 25.0828L101.245 25.2752L101.584 25.4804L101.902 25.6857L102.198 25.9294L102.493 26.186L102.767 26.4554L103.019 26.7376L103.336 27.007L103.577 27.3148L103.774 27.6484L103.971 28.0075L104.147 28.3796L104.311 28.7644L104.464 29.1621L104.574 29.5854L104.694 29.9959L104.782 30.4577L104.858 30.9195V31.3813V31.8816V32.3947V48.3911H101.125V45.2098L100.785 45.6716L100.424 46.1077L100.062 46.4926L99.7011 46.8518L99.3397 47.1725L98.9674 47.4803L98.5951 47.7241L98.2228 47.955L97.8396 48.1474L97.4454 48.3141L97.0184 48.4681L96.5804 48.5835L96.1205 48.6733H95.6387H95.1569H94.6422H93.9196L93.2407 48.5835L92.5837 48.4296L91.9705 48.1987L91.3573 47.9293L90.8098 47.5701L90.2842 47.1596L89.7805 46.6978L89.4082 46.2488L89.014 45.6972L88.6855 45.0943L88.4227 44.4658L88.2037 43.7987L88.0066 43.106V42.4005V41.6308V41.1177V40.643V40.1941L88.0942 39.7323L88.1928 39.3089L88.3242 38.9113L88.4665 38.5008L88.6417 38.1288L88.8388 37.7439L89.0578 37.3848L89.2878 37.0512L89.5396 36.7305L89.8243 36.4227L90.1309 36.1276L90.4704 35.8582L90.8098 35.576L91.1711 35.3451L91.5434 35.127L91.9267 34.9218L92.3866 34.7037L92.8027 34.5241L93.2297 34.3702L93.6677 34.2163L94.1385 34.1008L94.6203 33.9725L95.124 33.8827L95.6606 33.7929H96.219L96.7994 33.7288H97.4125H98.0367H100.96L100.938 33.6518ZM100.862 39.6168V36.7818H99.5478H98.6608H97.8286L97.0403 36.8716L96.3176 36.9871L95.6715 37.1539L95.0583 37.3591L94.5218 37.6028L94.04 37.8722L93.602 38.1929L93.2297 38.5393L92.9122 38.9113L92.6603 39.3346L92.4523 39.7836L92.3099 40.2839L92.2223 40.8098V41.3871V41.7719V42.1696L92.299 42.5159L92.4085 42.8623L92.5508 43.1958L92.7151 43.4908L92.9231 43.7602L93.164 44.0296L93.4378 44.2733L93.7225 44.4658L94.0181 44.6454L94.3356 44.7865L94.6751 44.9019L95.0364 44.9789H95.4087H95.8029H96.3285H96.8322L97.325 44.8634L97.8615 44.7095L98.2995 44.4786L98.7046 44.222L99.0879 43.9013L99.4602 43.5422L99.7996 43.1445L100.095 42.7212L100.336 42.2594L100.533 41.7847L100.687 41.2844L100.796 40.7457L100.862 40.2069V39.6168ZM107.256 48.4168V24.4414H111.242V28.123L111.549 27.4431L111.888 26.8402L112.228 26.3014L112.622 25.814L113.016 25.4163L113.443 25.07L113.892 24.7877L114.363 24.5697L114.867 24.3901L115.392 24.2874L115.94 24.2233H116.476H117.078L117.714 24.3131L118.349 24.4542L119.038 24.6338L117.856 29.1621L117.374 29.021L116.936 28.944H116.75H116.586H116.005H115.677H115.37L115.075 29.021L114.79 29.0979L114.527 29.1877L114.023 29.4443L113.564 29.7521L113.147 30.1498L112.786 30.6116L112.469 31.1376L112.239 31.6122L112.042 32.1253L111.888 32.6641L111.79 33.2542V33.562V33.9084V34.2932V34.6909V35.127V48.4168H107.256Z" fill="#028140"/>
<path fill-rule="evenodd" clip-rule="evenodd" d="M56.9639 49.1473L56.7997 49.391L56.6792 49.6219L56.5807 49.8785V50.135V50.3916V50.6481V50.9047V51.1612L56.6573 51.405L56.734 51.6487L56.9639 52.1105L57.2596 52.5338L57.5881 52.893L58.0918 53.3548L58.5845 53.8166L59.6795 54.6504L60.227 55.0609L60.7964 55.4586L61.3657 55.8306L61.9899 56.2154L62.614 56.6131L63.282 56.9979L63.9828 57.3956L64.6945 57.8061L65.461 58.2166L66.2494 58.6784L67.0925 59.1274L67.9685 59.602L67.64 59.1659L67.3334 58.7554L67.0378 58.3449L66.764 57.96L66.2494 57.2288L65.7238 56.5105L65.2967 55.8819L64.9025 55.279L64.5303 54.7274L64.158 54.1758L63.4243 53.1624L63.0411 52.6621L62.614 52.1362L62.1651 51.6102L61.7271 51.0843L61.1687 50.5198L60.5664 49.8913L60.216 49.5834L59.8218 49.2627L59.3838 48.9805L58.8692 48.8137L58.6173 48.7368H58.3764H58.1356H57.8837H57.6428L57.4129 48.8266L57.1829 48.9677L56.9639 49.1473ZM59.7123 18.8349L59.6466 18.7194V18.5783V18.3089V18.0267L59.7233 17.7573L59.8437 17.488L59.9861 17.2442L60.1503 17.039L60.3365 16.8722L60.873 16.4874L61.4205 16.1795L61.9789 15.9101L62.5593 15.6664L63.72 15.2302L64.3332 14.9865L64.9573 14.73L64.8478 14.8967L64.7164 15.0891L64.5631 15.32L64.3769 15.5766L64.1908 15.846L63.9828 16.141L63.4791 16.7439L62.9644 17.3853L62.4388 18.0011L62.1541 18.2705L61.8694 18.5398L61.5847 18.7708L61.3001 18.976L61.1249 19.0658L60.9168 19.1428H60.6869H60.4569H60.227H60.0189L59.8547 19.0145L59.7123 18.8349ZM55.7704 15.102L55.628 15.0378L55.4966 14.9352L55.3762 14.8326L55.2886 14.7043L55.1572 14.3964L55.0696 14.0501V13.6781V13.3061V12.934L55.1572 12.6262L55.4309 11.7411L55.7594 10.9072L56.1208 10.1119L56.504 9.35506L56.9092 8.58538L57.3362 7.81571L57.7852 7.02038L58.2341 6.17374V8.82911V9.3294L58.037 10.33L57.9385 11.3947L57.7961 12.4338L57.7085 12.934L57.5881 13.3959L57.4895 13.755L57.3472 14.1784L57.172 14.4991L56.9639 14.7813L56.723 15.0122L56.5807 15.102L56.4383 15.1661H56.285H56.1098H55.9456L55.7704 15.102ZM49.5837 13.6139H49.2005H49.0253L48.8501 13.537L48.6859 13.4472L48.5873 13.2676L48.445 13.1393L48.3355 12.9725L48.1165 12.5877L47.9413 12.19L47.8208 11.7667L47.7113 11.3562L47.6566 10.7661V10.1632V8.88043V7.59763L47.7332 6.31484L47.8318 5.03205L47.9522 3.74926L48.0617 2.46647L48.1822 1.18368L48.3136 1.55569L48.4559 1.97901L48.6092 2.41516L48.7735 2.91545L48.9377 3.42856L49.1238 3.96733L49.2881 4.53176L49.4633 5.13468L49.8027 6.41747L50.0984 7.70026L50.3283 9.04719L50.4159 9.7399L50.5035 10.4454V10.8559V11.3177V11.818L50.4488 12.2927V12.5364V12.7416L50.3721 12.9597L50.2736 13.1393L50.1531 13.3061L50.0108 13.4215L49.8465 13.5241L49.5837 13.6139ZM43.2876 14.6658L43.0795 14.8454L42.8496 14.9737L42.6306 15.0635H42.4007H42.1707H41.9298H41.6999L41.459 14.9865L41.2509 14.8582L41.0319 14.73L40.6049 14.4093L40.2435 14.0372L39.9369 13.6268L39.5428 12.9982L39.1376 12.2927L38.7325 11.4973L38.3273 10.6763L37.9112 9.81686L37.4951 8.93174L36.6629 7.08452L35.8527 5.19881L35.4475 4.26238L35.0752 3.36442L34.7248 2.4793L34.3525 1.61983L34.0788 0.824495L33.7831 0.0676479L34.8124 1.1965L35.9074 2.32536L37.0024 3.46705L38.0974 4.66004L38.6558 5.27578L39.2143 5.93001L39.7727 6.58423L40.3421 7.28976L40.9224 8.02096L41.4809 8.79063L42.0393 9.59879L42.5868 10.4583L42.7182 10.6635L42.8496 10.8944L43.1233 11.3947L43.3971 11.9463L43.6161 12.5364L43.6927 12.8314V13.1136V13.4087V13.6909L43.638 13.9603L43.5613 14.2168L43.4409 14.4606L43.2876 14.6658ZM37.747 20.3614L37.5499 20.7719L37.298 21.0926L37.0462 21.3748L36.7505 21.5801L36.444 21.734L36.1155 21.8366L35.787 21.9008H35.4475H35.0862H34.7248L34.3525 21.734L34.0021 21.6057L33.6517 21.4646L33.3014 21.2978L32.9838 21.1183L32.6772 20.913L32.2392 20.618L31.7903 20.2844L31.3304 19.9381L30.8486 19.5789L29.8631 18.7836L28.8776 17.9241L27.7826 17.0005L26.6877 16.0384L25.5927 15.0507L24.4977 14.0244L22.3077 11.9463L21.2675 10.8944L20.2711 9.86818L19.2965 8.85477L18.3658 7.89268L17.5117 6.98189L17.2161 6.48161L16.8328 6.1096L17.5993 6.48161L18.4643 6.8921L19.3732 7.32825L20.3477 7.7644L21.377 8.21337L22.472 8.68801L23.567 9.17547L24.6619 9.70141L25.8774 10.33L27.0819 10.9201L28.3082 11.5358L29.5346 12.19L30.7829 12.8827L32.0312 13.6396L33.2795 14.4349L34.5168 15.2816L34.7905 15.474L35.1081 15.7049L35.7541 16.1795L36.4221 16.7439L36.7396 17.039L37.0462 17.3597L37.298 17.6932L37.528 18.0396L37.7251 18.3987L37.8674 18.7579L37.9441 19.1556V19.5533V19.7713V19.9766L37.8784 20.1946L37.747 20.3614ZM34.7577 28.0582L34.7029 28.5328L34.6044 28.9561L34.462 29.341L34.2649 29.6745L34.0459 29.9695L33.7831 30.2261L33.4984 30.4442L33.1809 30.6366L32.8415 30.7905L32.4911 30.8546L32.1407 30.9444L31.7574 31.0086H31.3851H30.6624H30.312H30.0493H29.7755H29.4799L29.1514 30.9444L28.4615 30.8033L27.7169 30.6366L26.8957 30.4442L26.0307 30.2261L25.1109 29.9823L24.1473 29.5719L23.129 29.2768L22.0887 28.9818L20.9937 28.6482L19.8988 28.3147L18.8038 27.9684L17.7088 27.6092L15.4093 26.878L13.1208 26.1211L10.8652 25.3643L9.77018 24.9923L8.6752 24.6203L7.63496 24.2483L6.61663 23.9019L5.65305 23.5556L4.73326 23.2477L3.85728 22.927L3.04699 22.632L2.29145 22.3626L1.60161 22.106L0.944622 21.8751H0.659927L0.408081 21.7212H2.2586H2.90464H3.59448H4.33907H5.13841H5.98154H6.87943H7.82111H8.7847H9.79208L10.8214 21.7853L11.9163 21.8623H13.0113L15.2013 22.029L17.3913 22.1958L19.5812 22.3754L21.7712 22.5806L22.8662 22.6704L23.9612 22.7731L24.9795 22.8757L25.9759 22.9655L26.9286 23.0681L27.8483 23.1707L28.7243 23.2862L29.5565 23.3888L29.9398 23.4529L30.3449 23.5427L30.7172 23.6325L31.1004 23.7352L31.8888 24.0174L32.2721 24.1841L32.6553 24.3637L33.0167 24.5818L33.3671 24.8127L33.6846 25.0564L33.9802 25.3386L34.2321 25.6465L34.473 25.9672L34.6372 26.3136L34.7796 26.6856L34.8562 27.0704L34.7577 28.0582ZM35.4475 38.3718L35.3709 37.8972L35.2395 37.4867L35.0752 37.1275L34.8672 36.794L34.6372 36.5246L34.3525 36.2937L34.0569 36.0884L33.7284 35.9858L33.3999 35.8575L33.0386 35.7549L32.6772 35.6908H32.3159H31.5822H31.2209L30.8814 35.7549L30.3668 35.8575L29.7974 35.9858L29.1842 36.1141L28.5272 36.268L27.8264 36.4348L27.1147 36.6272L26.3482 36.8196L25.5598 37.0377L24.7495 37.2429L23.9064 37.4867L22.1763 37.987L20.3915 38.5129L18.5957 39.0517L16.8328 39.5905L15.048 40.1549L13.3289 40.7321L12.4857 41.0144L11.6864 41.2966L10.8871 41.5916L10.1315 41.861L9.40884 42.1432L8.70805 42.3998L8.07296 42.6692L7.47072 42.9129L6.90133 43.1566L6.38668 43.3875H12.2558H13.8107H15.3984L18.5738 43.2721L20.1178 43.1053L21.7164 43.0027L23.2932 42.8616L24.859 42.7205L26.403 42.5409L27.914 42.31L29.3923 42.0662L30.8376 41.784L31.1552 41.7199L31.5165 41.6429L32.2721 41.4633L33.0714 41.2196L33.4547 41.0913L33.8379 40.9117L34.1883 40.7193L34.5058 40.4884L34.8015 40.2319L35.0533 39.9496L35.2395 39.6161L35.3709 39.2441V39.0389V38.8336V38.3718H35.4475ZM38.5354 45.812L38.3054 45.44L38.0426 45.1193L37.7798 44.8756L37.4623 44.6831L37.1557 44.5549L36.8272 44.4651H36.4878H36.1483H35.787L35.4475 44.5805L35.0862 44.7088L34.7358 44.8371L34.3525 44.9654L34.0131 45.1449L33.7065 45.363L33.4109 45.5683L32.9838 45.9018L32.5349 46.261L32.064 46.6586L31.5713 47.082L31.0676 47.5309L30.542 47.9927L30.0055 48.4802L29.458 48.9677L28.3301 50.0965L27.1585 51.1997L25.965 52.3542L24.7605 53.5344L23.567 54.7274L22.3953 55.9076L21.3003 57.1006L20.2054 58.2551L19.6798 58.8195L19.1651 59.3711L18.6724 59.9227L18.2015 60.4486L17.7526 60.9618L17.3256 61.4492L16.8328 61.8982L16.4605 62.3472L17.7417 61.6416L18.979 61.0002L21.4208 59.7175L23.8079 58.4347L26.173 57.1519L27.3446 56.5105L28.5163 55.8306L29.677 55.1251L30.8486 54.3939L32.0202 53.6114L33.1919 52.7904L34.3525 52.0977L35.5351 51.1612L35.7979 50.9303L36.1045 50.7123L36.7396 50.1735L37.3856 49.5834L37.6813 49.2499L37.955 48.9164L38.2178 48.57L38.4259 48.2108L38.5901 47.8388L38.7215 47.4411V47.0563V46.6458V46.4534L38.7325 46.2481L38.6558 46.0429L38.5354 45.812ZM43.6599 51.1612L43.419 51.0586H43.1671H42.9263H42.6963L42.4664 51.1356L42.2474 51.2254L42.0174 51.3793L41.8203 51.5332L41.6342 51.7128L41.448 51.9053L41.1195 52.3542L40.8567 52.816L40.6596 53.3163L40.5282 53.7012L40.4078 54.0988L40.2654 54.5478L40.145 55.0353L40.0026 55.5484L39.8603 56.0872L39.7179 56.6644L39.5646 57.2673L39.269 58.5501L38.9734 59.8329L38.7325 61.1542L38.4368 62.5524L38.1521 63.9635L37.8784 65.3489L37.6265 66.6317L37.3856 67.9145L37.2761 68.5431L37.1776 69.1331L37.0681 69.7232L36.9805 70.262L36.8929 70.7751L36.8272 71.2754L36.7505 71.7244V72.1349L37.8455 70.0952L38.7325 68.0556L39.7289 65.9903L40.7034 63.8865L41.6342 61.8084L42.5102 59.7303L42.9044 58.7041L43.2876 57.665L43.6599 56.6388L43.9993 55.6125L44.076 55.3688L44.1417 55.0994L44.284 54.5093L44.3935 53.8551V53.188V52.6621L44.3388 52.3542L44.2621 52.072L44.1417 51.8155L43.9993 51.5717L43.8679 51.3793L43.6599 51.1612ZM51.6971 50.9945H51.4343L51.2043 51.0843L50.9853 51.1869L50.7773 51.3793L50.5911 51.5461L50.4488 51.7513L50.3174 51.9566L50.2079 52.1875L50.1203 52.4055L50.0436 52.6621L49.9451 53.188V53.714V54.2399L50.0655 55.0353L50.2079 55.8563L50.394 56.7414L50.613 57.6778L50.8649 58.6527L51.1496 59.6661L51.4452 60.718L51.7628 61.7828L52.1132 62.886L52.4526 63.9892L53.1972 66.234L53.9637 68.4533L54.7302 70.634V67.2218V66.1571V65.1052V64.079L54.6426 62.0778L54.5112 60.128L54.3469 58.2038L54.0622 56.2924L53.8542 54.3554L53.7775 53.8423L53.679 53.2907L53.5147 52.7262L53.2848 52.1875L53.1534 51.9437L53.0001 51.7128L52.8139 51.5076L52.6606 51.3793L52.4526 51.2382L52.2226 51.1356L51.9599 51.0586L51.6971 50.9945Z" fill="#F4C102"/>
<path fill-rule="evenodd" clip-rule="evenodd" d="M199.531 24.5825H203.976L208.214 39.527L208.936 42.0926L210.962 35.0629L214.006 24.6081H218.31L210.119 51.5468V51.6494V51.7777L210.02 52.0727L209.911 52.4191L209.791 52.7783L209.681 53.1631L209.572 53.4838L209.484 53.7788V53.8815V53.9712L209.374 54.3433L209.265 54.6768L209.155 55.0103L209.068 55.3054L208.871 55.8441L208.674 56.2803L208.488 56.6523L208.29 56.9473L208.082 57.1911L207.852 57.3835L207.601 57.5246L207.305 57.6144L206.976 57.6913H206.593H204.491L205.849 52.9963L206.801 49.8535L206.9 49.52L207.009 49.1479L199.531 24.5825ZM194.658 48.4039V15.8467H198.304H198.468L198.611 15.9365L198.742 16.0648L198.841 16.2059L198.928 16.3855V16.565V48.4039H194.658ZM186.993 21.2601V15.8467H190.639H190.793L190.935 15.9365L191.066 16.0648L191.176 16.2059L191.252 16.3855V16.565V21.1831L186.993 21.2601ZM186.993 48.4039V24.621H191.318V48.4039H186.993ZM154.56 48.4039V24.6723H158.469V28.0332L158.819 27.5714L159.18 27.1352L159.542 26.7248L159.914 26.3527L160.286 26.0064L160.67 25.6857L161.053 25.4035L161.447 25.1469L161.841 24.9288L162.235 24.7236L162.652 24.5568L163.057 24.4286L163.484 24.3259L163.911 24.249H164.338H165.28H165.772L166.243 24.3388L166.714 24.4542L167.152 24.6081L167.557 24.7877L167.962 25.0186L168.345 25.2495L168.707 25.5446L169.035 25.8653L169.353 26.2116L169.67 26.6093L169.944 27.0326L170.207 27.4816L170.448 27.9691L170.667 28.495L170.776 28.3282L170.897 28.1102L171.05 27.8921L171.236 27.6355L171.4 27.379L171.554 27.1866L171.696 27.0198L171.795 26.8787L172.408 26.2501L173.021 25.6857L173.667 25.2367L174.313 24.8647L174.981 24.5568L175.682 24.3516L176.383 24.2361H177.105H177.478H177.85L178.222 24.3003L178.594 24.3772L178.967 24.5055L179.328 24.6338L179.7 24.8006L180.062 24.9802L180.423 25.1982L180.752 25.4163L181.069 25.6472L181.365 25.9166L181.639 26.186L181.901 26.4682L182.131 26.7889L182.35 27.1224L182.646 27.6355L182.898 28.1871L183.139 28.79L183.314 29.4571L183.456 30.1626L183.555 30.9195V31.7148V32.5615V48.4552H179.251V33.2029V32.7154V32.3049L179.186 31.9329V31.5737L179.098 31.2402L179.011 30.9195L178.89 30.6116L178.748 30.3294L178.562 30.0728L178.376 29.8163L178.157 29.5854L177.905 29.3801L177.664 29.2005L177.39 29.0466L177.127 28.9312L176.832 28.8285L176.525 28.7644H176.196H175.868H175.364L174.861 28.8927L174.357 29.0723L173.875 29.316L173.415 29.5725L172.999 29.9446L172.627 30.3551L172.32 30.8553L172.047 31.33L171.838 31.8303L171.663 32.3434L171.543 32.8565V33.1259V33.4466V33.7929V34.1778V48.4552H167.229V32.3306L167.174 31.9072L167.097 31.5224L167.01 31.1376L166.878 30.7912L166.736 30.4577L166.55 30.1498L166.364 29.8548L166.145 29.611L165.904 29.3801L165.641 29.1621L165.356 29.0081L165.082 28.867L164.754 28.7516L164.436 28.6746H164.086H163.56H162.958L162.411 28.8029L161.885 28.9825L161.403 29.239L160.954 29.5725L160.56 29.9702L160.188 30.4448L159.859 30.9964L159.618 31.4454L159.421 31.9457L159.257 32.4717L159.148 33.0361V33.3311V33.6647V34.0238V34.4215V34.832V48.4552L154.56 48.4039ZM147.169 33.6518V32.7667V32.2023L147.114 31.6763L147.015 31.176L146.873 30.7142L146.687 30.2781L146.479 29.8676L146.216 29.5084L145.92 29.1621L145.592 28.867L145.241 28.5848L144.946 28.418L144.541 28.2384L144.092 28.0973L143.61 27.9947L143.117 27.9306H142.022L141.497 27.9947L140.971 28.0845L140.456 28.2256L140.183 28.3154L139.887 28.418L139.569 28.5335L139.208 28.6874L138.825 28.8542L138.431 29.0338L137.982 29.2262L137.511 29.4571L136.186 26.032L137.062 25.5959L137.916 25.2367L138.759 24.9288L139.569 24.6723L140.38 24.467L141.212 24.3388L142.055 24.2618H142.931H143.895H144.354L144.803 24.3259L145.23 24.4157L145.657 24.5055L146.052 24.6338L146.435 24.7621L146.818 24.916L147.169 25.0828L147.519 25.2624L147.858 25.4676L148.231 25.7242L148.526 25.9679L148.822 26.2245L149.096 26.4939L149.348 26.7761L149.588 27.0839L149.818 27.3918L150.037 27.7382L150.234 28.0845L150.399 28.4437L150.574 28.8414L150.705 29.2262L150.837 29.6495L150.946 30.0728L151.045 30.5218L151.121 30.9836L151.176 31.4583V31.9585V32.4588V48.4552H147.431V45.2611L147.092 45.7101L146.731 46.1462L146.38 46.5439L146.019 46.9031L145.646 47.2366L145.285 47.5316L144.902 47.7882L144.53 48.0191L144.146 48.2115L143.741 48.3783L143.325 48.5322L142.887 48.6477L142.416 48.7375L141.956 48.8016H141.453H140.96H140.237L139.547 48.7118L138.89 48.545L138.266 48.327L137.675 48.0319L137.117 47.6856L136.591 47.2879L136.087 46.8004L135.638 46.2745L135.255 45.7229L134.916 45.1328L134.653 44.5042L134.445 43.8372L134.292 43.1317L134.193 42.3876V41.618V41.1177V40.6302V40.1812L134.281 39.7323L134.379 39.3089L134.511 38.8984L134.653 38.5008L134.817 38.1159L135.003 37.7439L135.222 37.3848L135.474 37.0512L135.726 36.7177L136.011 36.4227L136.317 36.1148L136.657 35.8454L136.996 35.576L137.357 35.3323L137.719 35.127L138.102 34.909L138.518 34.7294L138.923 34.5498L139.361 34.3958L139.81 34.2547L140.281 34.1265L140.763 34.0238L141.267 33.9212L141.803 33.8442L142.362 33.7673H142.931H143.555H147.103L147.169 33.6518ZM147.136 39.6553V36.8332H145.811H144.946L144.114 36.8973L143.336 36.9871L142.613 37.1154L141.967 37.2693L141.354 37.4874L140.807 37.7311L140.314 38.0005L139.898 38.3084L139.526 38.6547L139.197 39.0395L138.945 39.4629L138.737 39.9118L138.595 40.4121L138.507 40.9381V41.5025V41.9002V42.285L138.584 42.6314L138.704 42.9777L138.847 43.3112L139.022 43.6191L139.23 43.8885L139.46 44.1579L139.734 44.4016L140.018 44.594L140.314 44.7736L140.631 44.9147L140.982 45.0302L141.343 45.1072H141.715H142.11H142.635L143.139 45.043L143.61 44.9276L144.081 44.7608L144.508 44.5427L144.924 44.2862L145.307 43.9655L145.679 43.6063L146.019 43.1958L146.314 42.7725L146.555 42.3235L146.763 41.836L146.917 41.3486L147.026 40.797L147.092 40.2582L147.136 39.6553ZM125.313 20.8239V29.9317H134.215V34.1393H125.313V48.3911H120.856V21.2344V20.7213V20.2467L120.955 19.7464L121.119 19.2717L121.272 18.9126L121.436 18.579L121.644 18.2583L121.874 17.9505L122.126 17.6811L122.411 17.4245L122.696 17.1936L123.013 17.014L123.298 16.8857L123.583 16.7831L123.878 16.7062L124.185 16.642H124.678H135.31V20.8624L125.313 20.8239Z" fill="#028140"/>
</svg>
