<svg width="130" height="131" viewBox="0 0 130 131" fill="none" xmlns="http://www.w3.org/2000/svg">
<path d="M65 0.868164C94.922 0.868164 109.883 0.868118 119.458 9.8125C120.009 10.3268 120.541 10.8596 121.056 11.4102C130 20.9848 130 35.9461 130 65.8682C130 95.7902 130 110.752 121.056 120.326C120.541 120.877 120.009 121.41 119.458 121.924C109.883 130.868 94.922 130.868 65 130.868C35.078 130.868 20.1166 130.868 10.542 121.924C9.99148 121.41 9.45861 120.877 8.94434 120.326C-4.5993e-05 110.752 0 95.7902 0 65.8682C0 35.9461 -4.5993e-05 20.9848 8.94434 11.4102C9.45861 10.8596 9.99148 10.3268 10.542 9.8125C20.1166 0.868118 35.078 0.868164 65 0.868164ZM64.9814 90.6279L87.584 97.5059L83.2646 115.39L114.505 90.6279L91.9033 83.749L96.2217 65.8652L64.9814 90.6279Z" fill="white"/>
</svg>
