<svg width="16" height="16" viewBox="0 0 16 16" fill="none" xmlns="http://www.w3.org/2000/svg">
<path d="M13.2254 8.25979L9.00669 12.4785C8.91873 12.5665 8.79944 12.6159 8.67505 12.6159C8.55066 12.6159 8.43136 12.5665 8.34341 12.4785C8.25545 12.3906 8.20604 12.2713 8.20604 12.1469C8.20604 12.0225 8.25545 11.9032 8.34341 11.8153L11.7624 8.3969H2.5813C2.45698 8.3969 2.33775 8.34751 2.24984 8.2596C2.16193 8.1717 2.11255 8.05247 2.11255 7.92815C2.11255 7.80383 2.16193 7.6846 2.24984 7.59669C2.33775 7.50878 2.45698 7.4594 2.5813 7.4594H11.7624L8.34341 4.04104C8.25545 3.95308 8.20604 3.83379 8.20604 3.7094C8.20604 3.58501 8.25545 3.46571 8.34341 3.37776C8.43136 3.2898 8.55066 3.24039 8.67505 3.24039C8.79944 3.24039 8.91873 3.2898 9.00669 3.37776L13.2254 7.59651C13.269 7.64004 13.3036 7.69174 13.3272 7.74864C13.3508 7.80555 13.3629 7.86655 13.3629 7.92815C13.3629 7.98975 13.3508 8.05075 13.3272 8.10765C13.3036 8.16456 13.269 8.21625 13.2254 8.25979Z" fill="url(#paint0_linear_1_1601)"/>
<defs>
<linearGradient id="paint0_linear_1_1601" x1="7.73773" y1="3.24039" x2="7.73773" y2="12.6159" gradientUnits="userSpaceOnUse">
<stop stop-color="#292929"/>
<stop offset="1" stop-color="#8F8F8F"/>
</linearGradient>
</defs>
</svg>
